<svg width="356" height="356" viewBox="0 0 356 356" fill="none" xmlns="http://www.w3.org/2000/svg">
<path d="M163 8.66026C172.282 3.30127 183.718 3.30127 193 8.66025L317.153 80.3397C326.435 85.6987 332.153 95.6025 332.153 106.321V249.679C332.153 260.397 326.435 270.301 317.153 275.66L193 347.34C183.718 352.699 172.282 352.699 163 347.34L38.8475 275.66C29.5654 270.301 23.8475 260.397 23.8475 249.679V106.321C23.8475 95.6025 29.5654 85.6987 38.8475 80.3397L163 8.66026Z" fill="#26648E"/>
<path d="M165.5 12.9904C173.235 8.52456 182.765 8.52456 190.5 12.9904L314.653 84.6699C322.388 89.1357 327.153 97.3889 327.153 106.321V249.679C327.153 258.611 322.388 266.864 314.653 271.33L190.5 343.01C182.765 347.475 173.235 347.475 165.5 343.01L41.3475 271.33C33.6124 266.864 28.8475 258.611 28.8475 249.679V106.321C28.8475 97.3889 33.6124 89.1357 41.3475 84.6699L165.5 12.9904Z" stroke="url(#paint0_linear_2320_70)" stroke-width="10"/>
<path d="M163.5 51.5263C172.473 46.3459 183.527 46.3459 192.5 51.5263L278.547 101.206C287.52 106.386 293.047 115.96 293.047 126.321V225.679C293.047 236.04 287.52 245.614 278.547 250.794L192.5 300.474C183.527 305.654 172.473 305.654 163.5 300.474L77.4526 250.794C68.48 245.614 62.9526 236.04 62.9526 225.679V126.321C62.9526 115.96 68.48 106.386 77.4526 101.206L163.5 51.5263Z" stroke="#F8E6CB" stroke-width="2"/>
<path d="M187.397 227.038L205.5 216V197.991C205.5 194.07 201.193 191.675 197.862 193.744L160.362 217.033C158.893 217.945 158 219.552 158 221.281V245.5V269.51C158 271.351 159.012 273.044 160.634 273.915L177.634 283.044C180.965 284.833 185 282.42 185 278.639V231.307C185 229.564 185.908 227.946 187.397 227.038Z" fill="url(#paint1_linear_2320_70)"/>
<path fill-rule="evenodd" clip-rule="evenodd" d="M153.319 280.055L86.5532 242.589C84.9763 241.704 84 240.037 84 238.229V133.904C84 132.193 84.8746 130.601 86.3185 129.683L177.445 71.7799C179.016 70.782 181.01 70.7387 182.623 71.6675L269.496 121.714C271.045 122.607 272 124.258 272 126.046V206.877C272 208.605 271.107 210.211 269.639 211.124L209.639 248.409C208.13 249.348 206.419 249.368 205 248.746V215.851L236.788 195.101C238.172 194.197 239.02 192.668 239.053 191.015L239.94 147.148C239.977 145.306 238.998 143.593 237.392 142.69L216 130.657L182.563 112.545C180.979 111.687 179.056 111.747 177.529 112.703L116.788 150.725C115.36 151.618 114.478 153.171 114.442 154.855L113.063 218.761C113.024 220.552 113.947 222.227 115.481 223.151L152.08 245.199C153.582 246.103 154.5 247.729 154.5 249.482V279.364C154.5 279.802 154.145 280.157 153.707 280.157C153.571 280.157 153.438 280.122 153.319 280.055Z" fill="url(#paint2_linear_2320_70)"/>
<path d="M132.2 177.042C132.2 171.996 134.736 167.288 138.951 164.513L220.159 111.04C221.488 110.165 223.258 111.118 223.258 112.711L223.258 123.959L223.258 133.229C223.258 138.355 220.641 143.126 216.317 145.88L135.275 197.5C133.943 198.348 132.2 197.392 132.2 195.814L132.2 184.459L132.2 177.042Z" fill="url(#paint3_linear_2320_70)"/>
<defs>
<linearGradient id="paint0_linear_2320_70" x1="178" y1="0" x2="178" y2="356" gradientUnits="userSpaceOnUse">
<stop stop-color="#62C4C3"/>
<stop offset="1" stop-color="#F8D49B"/>
</linearGradient>
<linearGradient id="paint1_linear_2320_70" x1="180.75" y1="189" x2="175.5" y2="534.5" gradientUnits="userSpaceOnUse">
<stop stop-color="#F8D49B"/>
<stop offset="1" stop-color="#62C4C3" stop-opacity="0"/>
</linearGradient>
<linearGradient id="paint2_linear_2320_70" x1="178" y1="71" x2="178" y2="280.157" gradientUnits="userSpaceOnUse">
<stop stop-color="#62C4C3"/>
<stop offset="1" stop-color="#F8D49B"/>
</linearGradient>
<linearGradient id="paint3_linear_2320_70" x1="309.5" y1="86.499" x2="134.5" y2="199.999" gradientUnits="userSpaceOnUse">
<stop stop-color="#62C4C3"/>
<stop offset="1" stop-color="#F8E6CB"/>
</linearGradient>
</defs>
</svg>
